<svg width="201" height="66" viewBox="0 0 201 66" fill="none" xmlns="http://www.w3.org/2000/svg">
<rect width="201" height="66" rx="33" fill="url(#paint0_linear_63_227)"/>
<path d="M37.26 36.98C39.62 36.98 40.62 35.64 40.86 34H43.28C42.96 36.92 41.1 39.12 37.2 39.12C33.5 39.12 30.86 36.42 30.86 32.14C30.86 27.92 33.54 25.14 37.2 25.14C41.04 25.14 42.98 27.34 43.28 30.3H40.86C40.62 28.64 39.56 27.28 37.26 27.28C35.04 27.28 33.32 29.14 33.32 32.14C33.34 35.2 35.02 36.98 37.26 36.98ZM49.7044 29.1C52.7044 29.1 54.6844 31.1 54.6844 34.08C54.6844 37.02 52.7044 39.1 49.7044 39.1C46.7244 39.1 44.7244 37.12 44.7244 34.18C44.7244 31.22 46.7244 29.1 49.7044 29.1ZM49.7044 31.12C48.1844 31.12 47.2044 32.34 47.2044 34.12C47.2044 35.88 48.1844 37.08 49.7044 37.08C51.2444 37.08 52.2044 35.88 52.2044 34.12C52.2044 32.34 51.2444 31.12 49.7044 31.12ZM62.2297 29.1C64.4097 29.1 65.6897 30.58 65.6897 32.84V39H63.2297V33.4C63.2297 32.02 62.5897 31.2 61.3497 31.2C60.0297 31.2 59.1697 32.1 59.1697 33.44V39H56.7297V29.2H59.0697L59.1497 30.62C59.7297 29.72 60.7497 29.1 62.2297 29.1ZM73.6945 29.1C75.8745 29.1 77.1545 30.58 77.1545 32.84V39H74.6945V33.4C74.6945 32.02 74.0545 31.2 72.8145 31.2C71.4945 31.2 70.6345 32.1 70.6345 33.44V39H68.1945V29.2H70.5345L70.6145 30.62C71.1945 29.72 72.2145 29.1 73.6945 29.1ZM88.5194 34.16V34.66H81.4994C81.6794 36.26 82.6194 37.16 84.0194 37.16C85.4794 37.16 86.0194 36.4 86.1794 35.8H88.4794C88.1394 37.52 86.7794 39.1 83.9194 39.1C80.9194 39.1 79.0994 37.02 79.0994 34.12C79.0994 31.16 81.1394 29.1 83.9394 29.1C86.8394 29.1 88.5194 31.1 88.5194 34.16ZM83.9594 30.98C82.7394 30.98 81.7994 31.72 81.5394 33.16H86.1994C85.9994 31.66 85.1794 30.98 83.9594 30.98ZM94.7773 39.1C91.8173 39.1 90.0173 37.04 90.0173 34.14C90.0173 31.18 92.0173 29.1 94.8373 29.1C97.6373 29.1 99.0773 30.76 99.3173 32.96H96.9173C96.7373 31.94 96.1373 31.12 94.8973 31.12C93.4573 31.12 92.4973 32.22 92.4973 34.1C92.4973 35.98 93.3973 37.08 94.8773 37.08C96.1773 37.08 96.7373 36.28 96.9173 35.3H99.3173C99.0573 37.44 97.5973 39.1 94.7773 39.1ZM107.183 36.82L107.263 38.84C106.923 38.98 106.303 39.1 105.603 39.1C103.123 39.1 101.703 37.66 101.703 35.48V31.18H100.243V29.2H101.843V26.38H104.143V29.2H107.123V31.16H104.143V35.42C104.143 36.38 104.603 37.04 105.963 37.04C106.403 37.04 106.803 36.98 107.183 36.82ZM127.963 25.28H130.403L126.543 39H123.823L121.103 28.18L118.403 39H115.663L111.803 25.28H114.243L117.063 36.6L119.823 25.28H122.403L125.163 36.56L127.963 25.28ZM140.56 36.94L140.72 38.92C140.34 39.02 139.9 39.1 139.4 39.1C138.34 39.1 137.56 38.56 137.28 37.5C136.96 38.1 136.1 39.1 134 39.1C131.82 39.1 130.68 38.02 130.68 36.44C130.68 34.12 132.98 33.36 135.66 33.36H137.18V32.86C137.18 31.72 136.5 31 135.14 31C133.98 31 133.26 31.56 133.16 32.52H130.92C131.08 30.32 132.78 29.1 135.28 29.1C138.06 29.1 139.56 30.56 139.56 33V36.44C139.56 36.82 139.76 37.04 140.06 37.04C140.22 37.04 140.34 37.02 140.56 36.94ZM134.64 37.28C136.24 37.28 137.18 36.26 137.18 35.42V34.78H135.54C133.94 34.78 133.06 35.26 133.06 36.18C133.06 36.88 133.56 37.28 134.64 37.28ZM145.676 36.94L145.836 38.92C145.456 39.02 145.036 39.1 144.496 39.1C143.036 39.1 142.256 38.2 142.256 36.64V24.8H144.676V36.44C144.676 36.82 144.896 37.04 145.196 37.04C145.356 37.04 145.456 37.02 145.676 36.94ZM151.066 36.94L151.226 38.92C150.846 39.02 150.426 39.1 149.886 39.1C148.426 39.1 147.646 38.2 147.646 36.64V24.8H150.066V36.44C150.066 36.82 150.286 37.04 150.586 37.04C150.746 37.04 150.846 37.02 151.066 36.94ZM161.859 34.16V34.66H154.839C155.019 36.26 155.959 37.16 157.359 37.16C158.819 37.16 159.359 36.4 159.519 35.8H161.819C161.479 37.52 160.119 39.1 157.259 39.1C154.259 39.1 152.439 37.02 152.439 34.12C152.439 31.16 154.479 29.1 157.279 29.1C160.179 29.1 161.859 31.1 161.859 34.16ZM157.299 30.98C156.079 30.98 155.139 31.72 154.879 33.16H159.539C159.339 31.66 158.519 30.98 157.299 30.98ZM169.761 36.82L169.841 38.84C169.501 38.98 168.881 39.1 168.181 39.1C165.701 39.1 164.281 37.66 164.281 35.48V31.18H162.821V29.2H164.421V26.38H166.721V29.2H169.701V31.16H166.721V35.42C166.721 36.38 167.181 37.04 168.541 37.04C168.981 37.04 169.381 36.98 169.761 36.82Z" fill="white"/>
<defs>
<linearGradient id="paint0_linear_63_227" x1="0" y1="0" x2="201" y2="66" gradientUnits="userSpaceOnUse">
<stop stop-color="#8346E3"/>
<stop offset="1" stop-color="#0B37D6"/>
</linearGradient>
</defs>
</svg>
