<svg width="30" height="16" viewBox="0 0 30 16" fill="none" xmlns="http://www.w3.org/2000/svg">
<path d="M29.9978 13.5216C29.9707 12.8871 29.6967 12.3011 29.2264 11.8715C28.9899 11.6555 28.749 11.4457 28.5041 11.2416V6.65602C28.5041 6.41101 28.4007 6.17725 28.2191 6.01172C27.1502 5.03752 25.9468 4.21376 24.6233 3.54796V2.49528C24.6233 2.01261 24.2298 1.6213 23.7444 1.6213C23.259 1.6213 22.8655 2.01261 22.8655 2.49528V2.78404C22.6353 2.69845 22.403 2.61595 22.1669 2.53886C21.099 2.19003 19.9662 1.9269 18.7769 1.75041V0.873983C18.7769 0.391311 18.3834 0 17.898 0C17.4126 0 17.0191 0.391311 17.0191 0.873983V1.55633C16.3629 1.50739 15.6925 1.48216 15.0081 1.48216C14.3005 1.48216 13.6079 1.50931 12.9304 1.56163V0.873983C12.9304 0.391311 12.5369 0 12.0515 0C11.5661 0 11.1726 0.391311 11.1726 0.873983V1.76067C10.0068 1.9371 8.89525 2.19643 7.84666 2.5388C7.58867 2.62305 7.33484 2.71319 7.084 2.80752V2.49528C7.084 2.01261 6.69049 1.6213 6.2051 1.6213C5.71971 1.6213 5.3262 2.01261 5.3262 2.49528V3.58007C4.02735 4.24045 2.84605 5.0536 1.79634 6.01236C1.61499 6.17801 1.51187 6.41171 1.51199 6.65654L1.51474 11.2254C1.26326 11.4345 1.01611 11.6499 0.773472 11.8715C0.3032 12.3011 0.0292745 12.8871 0.00220428 13.5216C-0.024866 14.1561 0.198141 14.7631 0.630093 15.2307C1.52183 16.1962 3.03729 16.2603 4.00837 15.3734C4.40897 15.0075 4.83823 14.654 5.28418 14.3227C8.10717 12.2257 11.4668 11.1173 14.9999 11.1173C18.5331 11.1173 21.8927 12.2257 24.7157 14.3227C25.1613 14.6537 25.5906 15.0072 25.9916 15.3734C26.434 15.7775 27.0082 16 27.6086 16C28.2764 16 28.9183 15.7196 29.3698 15.2308C29.8019 14.7631 30.0249 14.1561 29.9978 13.5216ZM5.32625 8.70259C4.62073 9.06635 3.93489 9.47065 3.27184 9.91423L3.27009 7.04675C3.90759 6.49556 4.59342 6.00362 5.32625 5.57106V8.70259ZM11.1727 6.70986C9.76859 6.96698 8.39949 7.3654 7.08406 7.89661V4.68647C8.33603 4.15456 9.70003 3.76727 11.1727 3.52664V6.70986ZM17.0191 6.45856C16.3512 6.39499 15.6776 6.3623 15 6.3623C14.3054 6.3623 13.615 6.39703 12.9305 6.4638V3.3135C13.6034 3.25844 14.2956 3.23006 15.0081 3.23006C15.6971 3.23006 16.367 3.25681 17.0191 3.30843V6.45856ZM22.8655 7.87645C21.5498 7.34903 20.1807 6.95463 18.7769 6.70106V3.51685C20.2483 3.75277 21.6123 4.13458 22.8655 4.66054V7.87645ZM26.7464 9.92635C26.0619 9.46745 25.3531 9.05044 24.6234 8.67672V5.53458C25.3808 5.97618 26.0891 6.48023 26.7464 7.04745V9.92635Z" fill="white" fill-opacity="0.4"/>
</svg>
