<svg width="30" height="30" viewBox="0 0 30 30" fill="none" xmlns="http://www.w3.org/2000/svg">
<path fill-rule="evenodd" clip-rule="evenodd" d="M15 30C6.72973 30 0 23.2703 0 15C0 6.72973 6.72973 0 15 0C23.2703 0 30 6.72973 30 15C30 23.2703 23.2703 30 15 30ZM20.0811 23.1622C20.1622 23.1622 20.2162 23.1351 20.2703 23.0811C20.3784 23.027 20.4324 22.9189 20.4324 22.8108L20.1081 17.4865L23.4865 13.3784C23.5676 13.2973 23.5676 13.1622 23.5405 13.0541C23.5135 12.9459 23.4054 12.8649 23.2973 12.8378L18.1622 11.4865L15.2973 7.02703C15.2432 6.91892 15.1351 6.86487 15 6.86487C14.8919 6.86487 14.7838 6.91892 14.7297 7.02703L11.8649 11.4865L6.7027 12.8378C6.59459 12.8649 6.51351 12.9459 6.48649 13.0541C6.43243 13.1622 6.45946 13.2973 6.54054 13.3784L9.89189 17.4865L9.5946 22.8108C9.5946 22.9189 9.64865 23.027 9.72973 23.0811C9.83784 23.1622 9.94595 23.1892 10.0541 23.1351L15 21.2162L19.973 23.1351C20 23.1622 20.0541 23.1622 20.0811 23.1622ZM15 20.4865C14.973 20.4865 14.9189 20.5135 14.8919 20.5135L10.2973 22.2973L10.5946 17.4054C10.5946 17.3243 10.5676 17.2432 10.5135 17.1622L7.40541 13.3514L12.1622 12.1081C12.2432 12.0811 12.2973 12.027 12.3514 11.973L15 7.83784L17.6757 11.973C17.7027 12.0541 17.7838 12.0811 17.8649 12.1081L22.6216 13.3514L19.5135 17.1622C19.4595 17.2432 19.4324 17.3243 19.4324 17.4054L19.7027 22.2973L15.1351 20.5135C15.0811 20.5135 15.0541 20.4865 15 20.4865Z" fill="white" fill-opacity="0.4"/>
</svg>
