<svg width="25" height="26" viewBox="0 0 25 26" fill="none" xmlns="http://www.w3.org/2000/svg">
<path fill-rule="evenodd" clip-rule="evenodd" d="M23.0987 7.47284L16.3663 1.90628C14.0984 0.0312407 10.9016 0.0312407 8.63379 1.90628L1.90121 7.47284C0.688238 8.47574 0 9.99632 0 11.5829V20.2636C0 23.0825 2.16769 25.5 5 25.5H7.5C8.88071 25.5 10 24.3808 10 23V18.9348C10 17.3504 11.1901 16.1984 12.5 16.1984C13.8099 16.1984 15 17.3504 15 18.9348V23C15 24.3808 16.1192 25.5 17.5 25.5H20C22.8324 25.5 25 23.0825 25 20.2636V11.5829C25 9.99633 24.3118 8.47574 23.0987 7.47284Z" fill="white"/>
</svg>
