<svg width="156" height="28" viewBox="0 0 156 28" fill="none" xmlns="http://www.w3.org/2000/svg">
<path d="M135.696 27.2563V0.187504H145.848C151.484 0.187504 155.44 3.11687 155.44 7.30697C155.44 9.9026 153.91 11.9791 151.073 13.2769V13.4253C154.171 14.5377 156 16.9108 156 19.8031C156 24.1044 151.969 27.2563 146.408 27.2563H135.696ZM140.996 11.4229H145.214C148.05 11.4229 149.804 10.1251 149.804 8.04858C149.804 5.93499 148.05 4.63717 145.214 4.63717H140.996V11.4229ZM140.996 22.7695H145.4C148.461 22.7695 150.364 21.4346 150.364 19.2098C150.364 17.0221 148.461 15.6872 145.4 15.6872H140.996V22.7695Z" fill="url(#paint0_linear_1_61)"/>
<path d="M108.579 0.187504H113.879V16.095C113.879 19.9885 116.491 22.7325 120.149 22.7325C123.807 22.7325 126.307 20.0256 126.307 16.095V0.187504H131.607V16.5029C131.607 23.0291 126.793 27.8125 120.149 27.8125C113.468 27.8125 108.579 23.0662 108.579 16.5029V0.187504Z" fill="url(#paint1_linear_1_61)"/>
<path d="M104.476 0.187504V27.2563H99.176V15.9096H87.3447V27.2563H82.0448V0.187504H87.3447V11.015H99.176V0.187504H104.476Z" fill="url(#paint2_linear_1_61)"/>
<path d="M53.3238 27.2563V0.187504H58.6236V22.3987H69.5965V27.2563H53.3238Z" fill="white"/>
<path d="M33.7512 27.2563V0.187504H39.051V22.3987H50.0239V27.2563H33.7512Z" fill="white"/>
<path d="M24.3476 27.2563V11.015H29.6474V27.2563H24.3476Z" fill="white"/>
<path d="M0.875 27.2563V0.187504H11.0268C16.6626 0.187504 20.6188 3.11687 20.6188 7.30697C20.6188 9.9026 19.0885 11.9791 16.252 13.2769V13.4253C19.3498 14.5377 21.1786 16.9108 21.1786 19.8031C21.1786 24.1044 17.1478 27.2563 11.5866 27.2563H0.875ZM6.17484 11.4229H10.3923C13.2289 11.4229 14.983 10.1251 14.983 8.04858C14.983 5.93499 13.2289 4.63717 10.3923 4.63717H6.17484V11.4229ZM6.17484 22.7695H10.5789C13.6394 22.7695 15.5429 21.4346 15.5429 19.2098C15.5429 17.0221 13.6394 15.6872 10.5789 15.6872H6.17484V22.7695Z" fill="white"/>
<path d="M24.3476 8.23808V3.73809H29.6474V8.23808H24.3476Z" fill="white"/>
<defs>
<linearGradient id="paint0_linear_1_61" x1="0.875" y1="0.1875" x2="126.629" y2="76.3245" gradientUnits="userSpaceOnUse">
<stop stop-color="#8346E3"/>
<stop offset="1" stop-color="#0B37D6"/>
</linearGradient>
<linearGradient id="paint1_linear_1_61" x1="0.875" y1="0.1875" x2="126.629" y2="76.3245" gradientUnits="userSpaceOnUse">
<stop stop-color="#8346E3"/>
<stop offset="1" stop-color="#0B37D6"/>
</linearGradient>
<linearGradient id="paint2_linear_1_61" x1="0.875" y1="0.1875" x2="126.629" y2="76.3245" gradientUnits="userSpaceOnUse">
<stop stop-color="#8346E3"/>
<stop offset="1" stop-color="#0B37D6"/>
</linearGradient>
</defs>
</svg>
