<svg width="26" height="28" viewBox="0 0 26 28" fill="none" xmlns="http://www.w3.org/2000/svg">
<path d="M1.71558 23.3146L11.8267 27.754C12.5737 28.082 13.4263 28.082 14.1733 27.754L24.2844 23.3146C25.3278 22.8566 26 21.8345 26 20.7068V7.29307C26 6.16523 25.3276 5.14323 24.2844 4.68529L14.1733 0.246016C13.4263 -0.0820052 12.5737 -0.0820052 11.8267 0.246016L1.71558 4.68529C0.672248 5.14323 0 6.16523 0 7.29307V20.7068C0 21.8345 0.672392 22.8566 1.71558 23.3146ZM17.3334 10.4999H23.1112C23.5105 10.4999 23.8335 10.813 23.8335 11.1999C23.8335 11.5869 23.5105 11.8999 23.1112 11.8999H20.9446V16.7999C20.9446 17.1869 20.6216 17.4999 20.2223 17.4999C19.8231 17.4999 19.5001 17.1869 19.5001 16.7999V11.8999H17.3334C16.9342 11.8999 16.6112 11.5869 16.6112 11.1999C16.6112 10.813 16.9342 10.4999 17.3334 10.4999ZM10.1112 11.1999C10.1112 10.813 10.4341 10.4999 10.8334 10.4999H15.1668C15.566 10.4999 15.889 10.813 15.889 11.1999C15.889 11.5869 15.566 11.8999 15.1668 11.8999H11.5556V13.2999H15.1668C15.566 13.2999 15.889 13.613 15.889 13.9999C15.889 14.3869 15.566 14.6999 15.1668 14.6999H11.5556V16.7999C11.5556 17.1869 11.2326 17.4999 10.8334 17.4999C10.4341 17.4999 10.1112 17.1869 10.1112 16.7999V11.1999ZM2.16668 11.1999C2.16668 10.8985 2.36558 10.6312 2.66039 10.5362C2.95593 10.4392 3.27963 10.539 3.46654 10.7802L6.50004 14.6999V11.1999C6.50004 10.813 6.82302 10.4999 7.22226 10.4999C7.62151 10.4999 7.94449 10.813 7.94449 11.1999V16.7999C7.94449 17.1014 7.74559 17.3686 7.45078 17.4637C7.37537 17.4883 7.29839 17.4999 7.22226 17.4999C6.99938 17.4999 6.78358 17.3994 6.64463 17.2197L3.61113 13.2999V16.7999C3.61113 17.1869 3.28815 17.4999 2.88891 17.4999C2.48966 17.4999 2.16668 17.1869 2.16668 16.7999V11.1999Z" fill="white" fill-opacity="0.4"/>
</svg>
