<svg width="27" height="24" viewBox="0 0 27 24" fill="none" xmlns="http://www.w3.org/2000/svg">
<path d="M4.88795 9.97194C5.21648 10.2883 5.75227 10.2883 6.0808 9.97194L7.17188 8.92293C7.50094 8.60706 7.50094 8.09193 7.17188 7.77606L6.0808 6.72705H21.0938C22.4896 6.72705 23.625 7.81865 23.625 9.16072C23.625 9.83149 24.1929 10.3775 24.8906 10.3775H25.7344C26.4321 10.3775 27 9.83149 27 9.16072C27 6.0294 24.3506 3.48217 21.0938 3.48217H6.0808L7.17188 2.43316C7.50094 2.11729 7.50094 1.60216 7.17188 1.28629L6.0808 0.237282C5.75227 -0.0790941 5.21648 -0.0790941 4.88795 0.237282L0.123398 4.81764C-0.0411328 4.97634 -0.0411328 5.23288 0.123398 5.39158L4.88795 9.97194Z" fill="white" fill-opacity="0.4"/>
<path d="M22.1121 14.028C21.7835 13.7117 21.2483 13.7117 20.9192 14.028L19.8281 15.0771C19.4984 15.394 19.4979 15.9064 19.8281 16.2239L20.9192 17.2729H5.90625C4.51037 17.2729 3.375 16.1813 3.375 14.8393C3.375 14.1685 2.80705 13.6224 2.10938 13.6224H1.26562C0.567949 13.6224 0 14.1685 0 14.8393C0 17.9706 2.64938 20.5178 5.90625 20.5178H20.9192L19.8281 21.5668C19.4984 21.8838 19.4979 22.3962 19.8281 22.7137L20.9192 23.7627C21.2483 24.0791 21.783 24.0791 22.1121 23.7627L26.8766 19.1823C27.0411 19.0236 27.0411 18.7671 26.8766 18.6084L22.1121 14.028Z" fill="white" fill-opacity="0.4"/>
</svg>
